#!OML:ASF X:\für Bonn\!DataBase\2005_08_10_Bjorn_Final\c3d\bjorn.ASF
:FULLY-SPECIFIED
:DEGREES
357
root 0.654753 18.5362 5.52596 -185.197 32.7367 176.743
lowerback -5.54135 5.55028 1.53764
upperback 7.19506 7.95569 -2.47999
thorax 11.4165 4.23852 -2.24685
lowerneck -0.554192 2.19257 11.4674
upperneck 16.2731 4.63891 -9.02771
head 5.40993 2.77475 -4.49968
rclavicle -8.10544e-014 1.55052e-014
rhumerus 66.259 17.9947 -65.2329
rradius 57.7138
rwrist 25.521
rhand -37.1575 4.06036
rfingers 7.12502
rthumb -10.2266 -25.671
lclavicle -8.10544e-014 1.55052e-014
lhumerus 37.8442 -19.9007 66.6969
lradius 69.3426
lwrist 24.0052
lhand -24.9163 -11.5947
lfingers 7.12502
lthumb 1.5924 18.3791
rfemur 541.777 -186.057 -533.414
rtibia 34.2082
rfoot -18.0666 23.2396
rtoes -21.1317
lfemur 344.025 -6.49241 348.589
ltibia 38.9397
lfoot -12.9987 -1.66872
ltoes -24.6143
358
root 0.67739 18.4703 5.56748 -185.7 32.6012 176.665
lowerback -5.40228 5.49078 1.74737
upperback 7.41337 7.87404 -2.40221
thorax 11.5941 4.22419 -2.29184
lowerneck -0.888508 2.17339 11.3258
upperneck 16.7063 4.63957 -9.03682
head 5.59765 2.77178 -4.47727
rclavicle 1.99779e-014 -1.15295e-014
rhumerus 65.4055 18.2906 -65.1968
rradius 58.8012
rwrist 26.0287
rhand -38.0734 4.25391
rfingers 7.12502
rthumb -11.1101 -25.432
lclavicle 1.99779e-014 -1.15295e-014
lhumerus 36.9743 -20.3953 65.9699
lradius 69.6796
lwrist 20.9208
lhand -24.5621 -12.6714
lfingers 7.12502
lthumb 1.93449 17.2996
rfemur 542.334 -186.009 -533.235
rtibia 34.3126
rfoot -19.477 23.0046
rtoes -21.1806
lfemur 344.163 -6.75402 348.605
ltibia 39.4698
lfoot -13.4691 -1.59046
ltoes -24.8116
359
root 0.701192 18.4058 5.61088 -186.197 32.4593 176.569
lowerback -5.2697 5.42067 1.89384
upperback 7.62227 7.78249 -2.31346
thorax 11.753 4.19926 -2.29224
lowerneck -1.20644 2.15651 11.1557
upperneck 17.1494 4.64623 -9.01124
head 5.78597 2.77295 -4.43886
rclavicle -1.88348e-014 -1.31198e-014
rhumerus 64.4854 18.6574 -65.1993
rradius 59.9068
rwrist 26.4454
rhand -38.8865 4.4545
rfingers 7.12502
rthumb -11.8942 -25.1877
lclavicle -1.88348e-014 -1.31198e-014
lhumerus 35.9305 -20.9139 65.3827
lradius 70.0316
lwrist 17.7131
lhand -24.3484 -13.6455
lfingers 7.12502
lthumb 2.14085 16.3235
rfemur 542.864 -185.953 -533.07
rtibia 34.429
rfoot -20.8644 22.7036
rtoes -21.244
lfemur 344.281 -7.02547 348.615
ltibia 39.9989
lfoot -13.8948 -1.48553
ltoes -25.0193
360
root 0.724664 18.3436 5.65691 -186.639 32.2966 176.516
lowerback -5.15291 5.3308 2.06083
upperback 7.82401 7.66023 -2.21906
thorax 11.9135 4.16087 -2.30156
lowerneck -1.43885 2.14886 10.9844
upperneck 17.5234 4.67728 -9.02051
head 5.94171 2.78454 -4.41074
rclavicle 3.93097e-014 -8.54774e-015
rhumerus 63.4836 19.0946 -65.1939
rradius 61.0663
rwrist 26.7079
rhand -39.6366 4.64737
rfingers 7.12502
rthumb -12.6174 -24.9516
lclavicle 3.93097e-014 -8.54774e-015
lhumerus 34.7714 -21.4295 64.8798
lradius 70.4295
lwrist 14.4732
lhand -24.3467 -14.6004
lfingers 7.12502
lthumb 2.14251 15.3685
rfemur 543.357 -185.882 -532.859
rtibia 34.548
rfoot -22.2362 22.324
rtoes -21.3763
lfemur 344.337 -7.28955 348.674
ltibia 40.5207
lfoot -14.283 -1.45066
ltoes -25.095
361
root 0.750113 18.2853 5.70406 -187.051 32.1506 176.468
lowerback -5.0536 5.25751 2.21785
upperback 8.01056 7.56156 -2.13667
thorax 12.0698 4.13349 -2.31326
lowerneck -1.6401 2.12444 10.8243
upperneck 17.885 4.68249 -8.99297
head 6.08571 2.78714 -4.37443
rclavicle -3.95085e-014 1.76918e-014
rhumerus 62.367 19.5815 -65.2477
rradius 62.1804
rwrist 26.7842
rhand -40.2957 4.94176
rfingers 7.12502
rthumb -13.2528 -24.6169
lclavicle -3.95085e-014 1.76918e-014
lhumerus 33.5035 -22.0227 64.4745
lradius 70.8501
lwrist 11.2862
lhand -24.3865 -15.3098
lfingers 7.12502
lthumb 2.10409 14.6596
rfemur 543.807 -185.832 -532.647
rtibia 34.6646
rfoot -23.437 22.0036
rtoes -21.1732
lfemur 344.377 -7.5237 348.749
ltibia 41.0176
lfoot -14.6436 -1.42297
ltoes -25.3242
362
root 0.775931 18.2318 5.75334 -187.404 31.9981 176.421
lowerback -4.99537 5.17556 2.33518
upperback 8.16991 7.44949 -2.04812
thorax 12.2121 4.09387 -2.29664
lowerneck -1.59458 2.07127 10.6613
upperneck 18.0753 4.67236 -9.02432
head 6.13215 2.78295 -4.3596
rclavicle -6.9674e-014 1.05356e-014
rhumerus 61.146 20.1713 -65.2253
rradius 63.283
rwrist 26.5164
rhand -40.9557 5.37459
rfingers 7.12502
rthumb -13.8889 -24.1416
lclavicle -6.9674e-014 1.05356e-014
lhumerus 32.0581 -22.6525 64.2184
lradius 71.2926
lwrist 8.29322
lhand -24.1151 -15.6641
lfingers 7.12502
lthumb 2.36622 14.3025
rfemur 544.179 -185.748 -532.443
rtibia 34.7829
rfoot -24.5632 21.6349
rtoes -21.0473
lfemur 344.357 -7.68777 348.843
ltibia 41.4794
lfoot -14.935 -1.44827
ltoes -25.51
363
root 0.801871 18.1853 5.80351 -187.704 31.861 176.39
lowerback -4.94577 5.10516 2.44863
upperback 8.30076 7.34782 -1.95047
thorax 12.3259 4.0566 -2.26727
lowerneck -1.44536 1.99139 10.4975
upperneck 18.1969 4.63765 -9.09022
head 6.1367 2.76702 -4.35824
rclavicle -1.72197e-014 -1.12313e-014
rhumerus 59.7628 20.8223 -65.2198
rradius 64.3461
rwrist 26.1235
rhand -41.5255 5.97937
rfingers 7.12502
rthumb -14.438 -23.4984
lclavicle -1.72197e-014 -1.12313e-014
lhumerus 30.466 -23.3821 64.1344
lradius 71.6202
lwrist 5.54216
lhand -24.0604 -16.2392
lfingers 7.12502
lthumb 2.41898 13.7268
rfemur 544.493 -185.693 -532.223
rtibia 34.8815
rfoot -25.5551 21.2645
rtoes -20.8667
lfemur 344.313 -7.76482 348.966
ltibia 41.8809
lfoot -15.1782 -1.55793
ltoes -25.6274
364
root 0.827469 18.1443 5.85532 -187.931 31.6998 176.334
lowerback -4.95069 5.02804 2.50857
upperback 8.38837 7.23518 -1.858
thorax 12.4154 4.00618 -2.21374
lowerneck -1.14312 1.90109 10.3171
upperneck 18.2034 4.59917 -9.18032
head 6.07788 2.74951 -4.36294
rclavicle -6.63941e-014 4.21423e-014
rhumerus 58.1703 21.5311 -65.2795
rradius 65.3524
rwrist 25.7222
rhand -42.0747 6.73426
rfingers 7.12502
rthumb -14.9671 -22.7049
lclavicle -6.63941e-014 4.21423e-014
lhumerus 28.7092 -24.2204 64.1694
lradius 71.8343
lwrist 3.05518
lhand -24.2584 -16.9365
lfingers 7.12502
lthumb 2.22785 13.0316
rfemur 544.711 -185.601 -532.047
rtibia 34.9521
rfoot -26.3521 20.9587
rtoes -20.4503
lfemur 344.2 -7.7192 349.086
ltibia 42.1913
lfoot -15.3007 -1.74881
ltoes -25.9027
365
root 0.854306 18.1151 5.90738 -188.074 31.5696 176.253
lowerback -5.04588 4.96799 2.52893
upperback 8.45527 7.14599 -1.77968
thorax 12.5354 3.96173 -2.14254
lowerneck -0.831875 1.79773 10.2289
upperneck 18.1739 4.5506 -9.38333
head 6.00879 2.72557 -4.42073
rclavicle 6.74625e-015 -2.31584e-014
rhumerus 56.3383 22.2766 -65.4651
rradius 66.3927
rwrist 25.399
rhand -42.6126 7.58324
rfingers 7.12502
rthumb -15.4853 -21.8166
lclavicle 6.74625e-015 -2.31584e-014
lhumerus 26.8536 -25.1756 64.2455
lradius 71.9152
lwrist 0.794595
lhand -24.6986 -17.6708
lfingers 7.12502
lthumb 1.80266 12.3014
rfemur 544.821 -185.557 -531.894
rtibia 34.9808
rfoot -26.9799 20.7146
rtoes -19.8165
lfemur 344.037 -7.64993 349.196
ltibia 42.3935
lfoot -15.3763 -1.92985
ltoes -26.1739
366
root 0.881159 18.0993 5.96062 -188.122 31.4269 176.187
lowerback -5.22035 4.90759 2.5406
upperback 8.5048 7.05099 -1.69609
thorax 12.6821 3.91085 -2.05578
lowerneck -0.585751 1.71012 10.0889
upperneck 18.2251 4.52184 -9.53121
head 5.97661 2.71203 -4.4501
rclavicle 3.10539e-014 -5.2181e-015
rhumerus 54.2598 23.0673 -65.7553
rradius 67.4438
rwrist 25.4923
rhand -43.1758 8.13607
rfingers 7.12502
rthumb -16.0276 -21.221
lclavicle 3.10539e-014 -5.2181e-015
lhumerus 24.8916 -26.2097 64.4237
lradius 71.7741
lwrist -1.40725
lhand -25.3367 -18.3042
lfingers 7.12502
lthumb 1.18633 11.6722
rfemur 544.837 -185.503 -531.727
rtibia 34.9664
rfoot -27.4572 20.4513
rtoes -19.2272
lfemur 343.858 -7.74128 349.305
ltibia 42.4726
lfoot -15.3511 -1.93537
ltoes -26.3836
367
root 0.909086 18.0908 6.01504 -188.093 31.2783 176.137
lowerback -5.44086 4.86606 2.58364
upperback 8.52225 6.97806 -1.65471
thorax 12.833 3.8741 -2.02575
lowerneck -0.691104 1.65343 9.8372
upperneck 18.7269 4.51289 -9.35945
head 6.143 2.7215 -4.35393
rclavicle -6.98363e-014 2.60035e-014
rhumerus 51.8553 23.8595 -66.2673
rradius 68.4806
rwrist 26.0409
rhand -43.9044 8.37987
rfingers 7.12502
rthumb -16.7292 -20.9193
lclavicle -6.98363e-014 2.60035e-014
lhumerus 22.8114 -27.4543 64.6413
lradius 71.5112
lwrist -3.4877
lhand -26.2122 -18.4103
lfingers 7.12502
lthumb 0.340769 11.5692
rfemur 544.788 -185.429 -531.555
rtibia 34.9036
rfoot -27.848 20.1463
rtoes -18.9957
lfemur 343.649 -7.76456 349.44
ltibia 42.4423
lfoot -15.2408 -1.95741
ltoes -26.8507
368
root 0.935018 18.0879 6.07112 -188.128 31.1164 176.086
lowerback -5.60497 4.79842 2.63038
upperback 8.58674 6.87779 -1.613
thorax 13.0027 3.82871 -2.00489
lowerneck -0.836063 1.61762 9.5998
upperneck 19.2105 4.52783 -9.21427
head 6.31473 2.73865 -4.26673
rclavicle 5.23363e-014 -1.36167e-014
rhumerus 49.3314 24.6918 -66.7781
rradius 69.5842
rwrist 26.5369
rhand -44.5138 8.55171
rfingers 7.12502
rthumb -17.3157 -20.6969
lclavicle 5.23363e-014 -1.36167e-014
lhumerus 20.6662 -28.7384 64.9561
lradius 71.027
lwrist -5.4633
lhand -27.2999 -18.2394
lfingers 7.12502
lthumb -0.709775 11.7392
rfemur 544.81 -185.388 -531.379
rtibia 34.8085
rfoot -28.1768 19.8128
rtoes -19.0062
lfemur 343.55 -7.77238 349.557
ltibia 42.3117
lfoot -15.0297 -2.02678
ltoes -27.2063
369
root 0.960171 18.0904 6.12864 -188.232 30.944 176.08
lowerback -5.6588 4.72872 2.73449
upperback 8.67354 6.77596 -1.57535
thorax 13.1387 3.79194 -2.02901
lowerneck -0.992621 1.58155 9.39488
upperneck 19.7284 4.54509 -9.06074
head 6.50112 2.76083 -4.1821
rclavicle 7.19973e-015 -5.46658e-015
rhumerus 46.5918 25.4991 -67.5631
rradius 70.5674
rwrist 27.0704
rhand -45.1088 8.73184
rfingers 7.12502
rthumb -17.8883 -20.4655
lclavicle 7.19973e-015 -5.46658e-015
lhumerus 18.4156 -30.049 65.4678
lradius 70.3174
lwrist -7.41031
lhand -28.4276 -17.7962
lfingers 7.12502
lthumb -1.79887 12.176
rfemur 544.934 -185.327 -531.166
rtibia 34.6985
rfoot -28.4555 19.468
rtoes -19.1081
lfemur 343.588 -7.78157 349.697
ltibia 42.1027
lfoot -14.7586 -2.10782
ltoes -27.7287
